<?xml version="1.0" encoding="UTF-8"?>
<svg width="94px" height="110px" viewBox="0 0 94 110" version="1.1" xmlns="http://www.w3.org/2000/svg" xmlns:xlink="http://www.w3.org/1999/xlink">
    <!-- Generator: Sketch 52.3 (67297) - http://www.bohemiancoding.com/sketch -->
    <title>suspect 2</title>
    <desc>Created with Sketch.</desc>
    <g id="Page-1" stroke="none" stroke-width="1" fill="none" fill-rule="evenodd">
        <g id="characters" transform="translate(-264.000000, -149.000000)" fill="#010310" stroke="#B4CECB">
            <path d="M346.969832,177.865335 C345.251284,172.537562 336.079148,158.153554 336.079148,158.153554 C336.079148,158.153554 324.659396,152.454161 320.602395,151.226467 C318.251667,150.516343 313.292428,150 310.857,150 C308.421572,150 301.112832,151.226467 301.112832,151.226467 C301.112832,151.226467 288.843627,155.384191 285.63608,158.153554 C281.372853,161.831729 276.463943,172.537562 274.744168,177.865335 L265,193.315143 L265,198.642917 L267.866293,210.364264 L267.866293,237.534192 L272.452361,231.674132 L275.891912,225.814071 L283.05703,222.616671 C283.05703,222.616671 281.62327,228.477958 283.05703,227.945672 L284.489563,227.412158 C284.489563,227.412158 289.075631,232.739932 290.794179,233.805732 L290.222148,243.927766 L275.664818,258.313 L290.222148,258.313 L310.857,258.313 L331.494307,258.313 L347.117137,258.313 L331.494307,243.927766 L330.919821,233.805732 C332.639597,232.739932 337.225665,227.412158 337.225665,227.412158 L338.658198,227.945672 C340.09073,228.477958 338.658198,222.616671 338.658198,222.616671 L344.10354,225.046303 L344.10354,234.871532 L348.286977,230.011042 L349.262867,231.674132 L353.848935,237.534192 L353.848935,210.364264 L356.714,198.642917 L356.714,193.315143 L346.969832,177.865335 Z" id="suspect-2"></path>
        </g>
    </g>
</svg>