<?xml version="1.0" encoding="UTF-8"?>
<svg width="95px" height="114px" viewBox="0 0 95 114" version="1.1" xmlns="http://www.w3.org/2000/svg" xmlns:xlink="http://www.w3.org/1999/xlink">
    <!-- Generator: Sketch 52.3 (67297) - http://www.bohemiancoding.com/sketch -->
    <title>suspect 3 highlight</title>
    <desc>Created with Sketch.</desc>
    <defs>
        <linearGradient x1="50%" y1="0%" x2="50%" y2="100%" id="linearGradient-1">
            <stop stop-color="#FD404F" offset="0%"></stop>
            <stop stop-color="#FF8F60" offset="100%"></stop>
        </linearGradient>
    </defs>
    <g id="Page-1" stroke="none" stroke-width="1" fill="none" fill-rule="evenodd">
        <g id="characters" transform="translate(-75.000000, -357.000000)" fill="url(#linearGradient-1)" fill-rule="nonzero" stroke="#FFFFFF">
            <path d="M148.375766,396.445331 C148.344212,396.463921 148.311911,396.482915 148.278888,396.502298 C147.671523,396.858777 147.041324,397.215294 146.420409,397.5485 C146.215677,397.658366 146.014885,397.764087 145.818706,397.865164 L145.089701,398.240768 L145.089701,397.42069 L145.095421,391.950806 L142.894895,377.528155 L135.902217,366.386994 C134.43908,363.22529 126.809112,361.327176 117.174787,360.510548 L116.997272,360.461458 C116.855647,360.392165 116.71709,360.327679 116.579586,360.267325 C110.843517,357.744514 105.771011,357.153151 101.845145,357.638755 C101.673359,357.660004 101.524474,357.681102 101.399215,357.700788 L101.399215,359.974137 L98.0524177,364.509904 L97.697851,367.010545 L96.9727895,371.032097 L97.4033204,374.453955 L94.9519166,374.453955 L92.1556443,381.076088 C92.1212087,381.244515 92.0608043,381.544099 91.9830979,381.936597 C91.8535709,382.590843 91.7240493,383.261637 91.6032183,383.910617 C91.5723718,384.076293 91.5424354,384.238733 91.5134991,384.397539 C91.2278581,385.965176 91.0575531,387.083245 91.0575531,387.460014 L91.0564668,392.959968 L91.4797354,399.370633 L90.7282108,399.045257 C90.673997,399.021784 90.5705572,398.978985 90.4281128,398.923337 C90.1891585,398.829985 89.9312965,398.736547 89.6650026,398.649514 C89.3394228,398.543106 89.0242615,398.45394 88.7295793,398.387706 C88.1900265,398.266435 87.7529651,398.230971 87.4783839,398.289653 C87.2807012,398.331901 87.2420736,398.376878 87.2528075,398.556702 C87.2900511,399.182316 87.723116,400.578465 88.4346347,402.453142 C88.5352226,402.718166 88.6405498,402.990627 88.750097,403.269481 C89.0839459,404.119298 89.4419079,404.990879 89.7998919,405.836103 C89.9251944,406.131951 90.0415234,406.40331 90.1458763,406.644195 C90.1650068,406.688355 90.1824537,406.728541 90.1981307,406.76458 L95.6719423,409.129914 L95.4378432,409.602002 L93.6116836,413.278548 L89.1796225,425.196853 L89.1329319,425.290821 L79.9445505,439.744413 L78.5943265,445.474551 L86.2712401,447.803625 L75.7896604,469.960199 L169.217967,469.960199 L159.951867,449.534105 C159.827809,449.424372 159.644543,449.264925 159.415583,449.070164 C158.943557,448.668644 158.452398,448.267203 157.968079,447.893302 C157.74626,447.722056 157.530644,447.560354 157.322764,447.409778 C156.497809,446.812229 155.830129,446.41691 155.420813,446.296382 C154.971687,446.164132 154.752952,445.751739 154.959759,445.326419 C155.063595,445.11287 155.265877,444.911979 155.573336,444.679655 C156.042134,444.325418 156.781251,443.887787 157.745181,443.378779 C158.006544,443.240766 158.282415,443.09863 158.571065,442.953018 C159.323311,442.573541 160.128202,442.187292 160.932949,441.8143 C161.119392,441.727886 161.297036,441.646272 161.463952,441.570194 L155.516811,432.750925 L155.498064,432.720881 C155.437674,432.616004 155.321905,432.417788 155.156807,432.139594 C154.881135,431.675079 154.56821,431.15726 154.224092,430.599514 C153.241103,429.006283 152.205776,427.413235 151.167042,425.927821 C150.47612,424.939788 149.806542,424.032886 149.166582,423.224845 C147.635947,421.292197 146.329371,419.996356 145.364612,419.509895 C143.58229,418.61133 142.906836,416.669313 142.87489,413.749822 C142.86702,413.030551 142.892373,412.372369 142.956585,411.28219 C143.069995,409.356716 143.069978,408.776153 142.925421,408.484725 C142.710768,408.051066 142.706892,407.545255 142.866902,406.987276 L142.955474,406.678413 L143.273217,406.630658 C145.396433,406.311546 146.925497,405.84982 147.445399,405.309259 C148.014762,404.71693 148.356492,403.077599 148.448849,400.787954 C148.500924,399.496971 148.47322,398.109991 148.395232,396.763263 C148.388886,396.653684 148.382377,396.547617 148.375766,396.445331 Z M155.861221,445.759818 C155.86037,445.761227 155.859656,445.762523 155.859081,445.763706 C155.860806,445.760159 155.862436,445.756582 155.863973,445.752976 Z" id="suspect-3-highlight"></path>
        </g>
    </g>
</svg>