<?xml version="1.0" encoding="utf-8"?>
<!-- Generator: Adobe Illustrator 23.0.1, SVG Export Plug-In . SVG Version: 6.00 Build 0)  -->
<svg version="1.1" id="Layer_1" xmlns="http://www.w3.org/2000/svg" xmlns:xlink="http://www.w3.org/1999/xlink" x="0px" y="0px"
	 viewBox="0 0 168 130" style="enable-background:new 0 0 168 130;" xml:space="preserve">
<style type="text/css">
	.st0{fill-rule:evenodd;clip-rule:evenodd;fill:#010310;stroke:#B4CECB;}
</style>
<title>suspect 4</title>
<desc>Created with Sketch.</desc>
<g id="Page-1">
	<g id="characters" transform="translate(-251.000000, -349.000000)">
		<path id="suspect-4" class="st0" d="M289.6,424.7c0,0-15.6-0.9-17.2,2.7l-2.4,7.4l5.6,15.8l39.7,22.4l4.8-18.7l-2-5.5l30.5,13.8
			l9.6-24.4l-24.4-3.4c0,0,6-14.3,4.8-20.2l-2-6.4c0,0,8.9,5.8,13.6,10l-2.8-11.6H373L361.9,395c0,0,25.5-2.7,38.4,0
			c0,0-36.8-10.3-47.4-17.1c-5.3-3.4-17.7-18-17.7-18s3.8-5.6-16.7-4.8l-24.8,9.2l-9.6,6.4l-4.8,6.8c0,0-2.8,6.8-2,8
			c0.8,1.2,1.6,9.5,1.6,9.5l1.6,3.7l-2.8,2.8c0,0-9.6,10,8,16L289.6,424.7z"/>
	</g>
</g>
</svg>
