<?xml version="1.0" encoding="UTF-8"?>
<svg width="112px" height="83px" viewBox="0 0 112 83" version="1.1" xmlns="http://www.w3.org/2000/svg" xmlns:xlink="http://www.w3.org/1999/xlink">
    <!-- Generator: Sketch 52.3 (67297) - http://www.bohemiancoding.com/sketch -->
    <title>suspect 5</title>
    <desc>Created with Sketch.</desc>
    <g id="Page-1" stroke="none" stroke-width="1" fill="none" fill-rule="evenodd">
        <g id="characters" transform="translate(-56.000000, -600.000000)" fill="#010310" stroke="#B4CECB">
            <path d="M96,658 L89.4123294,658 C89.0554545,657.009162 88.8699024,655.927124 89.1044039,654.882155 C89.2375916,654.287888 89.5142123,653.737749 89.912068,653.22762 C92.5502098,652.661007 96,651 96,651 L96,658 Z M81.2425774,650.809269 C81.7656276,648.5945 83.1562052,646.654143 85.3811292,645 C87.3243181,646.392124 88.6250058,648.222126 87.492032,650.437485 C86.7192208,651.945865 87.0799867,652.617436 88,652.802738 C87.8256499,653.16744 87.6772412,653.541585 87.5837317,653.936974 C87.2676091,655.276576 87.4679005,656.612637 87.8871852,657.819459 L83.057266,660 C81.6123926,657.331419 80.486055,654.00838 81.2425774,650.809269 Z M163.040093,668.502003 C160.66355,662.149086 157.495625,668.502003 157.495625,668.502003 L143.238762,668.502003 L135.318349,661.355722 L143.238762,651.028775 L158.287606,643.092737 L163.040093,634.751002 L155.911062,612.919684 C149.575212,605.774004 105.220661,601 105.220661,601 C88.5878542,601.784348 79.0834789,611.332356 79.0834789,611.332356 L79.8754602,625.624317 L71.9550475,632.770598 L78.2914976,642.298773 C78.2914976,642.298773 81.111095,643.054872 83.6830858,644.470305 C81.4354416,646.325693 80.0121534,648.507442 79.4372026,651.001729 C78.5714789,654.755179 79.7795351,658.533272 81.3455118,661.530022 L78.2914976,662.943651 L78.2914976,668.502003 C78.2914976,668.502003 73.5384106,666.913474 63.2426535,670.883897 C52.9462968,674.853719 58.4907656,682 58.4907656,682 L93.3403417,682 L167,682 L163.040093,668.502003 Z" id="suspect-5"></path>
        </g>
    </g>
</svg>