<?xml version="1.0" encoding="utf-8"?>
<!-- Generator: Adobe Illustrator 23.0.1, SVG Export Plug-In . SVG Version: 6.00 Build 0)  -->
<svg version="1.1" id="Layer_1" xmlns="http://www.w3.org/2000/svg" xmlns:xlink="http://www.w3.org/1999/xlink" x="0px" y="0px"
	 viewBox="0 0 168 130" style="enable-background:new 0 0 168 130;" xml:space="preserve">
<style type="text/css">
	.st0{fill:url(#suspect-3-highlight_1_);stroke:#FFFFFF;}
</style>
<title>suspect 3 highlight</title>
<desc>Created with Sketch.</desc>
<g id="Page-1">
	<g id="characters" transform="translate(-75.000000, -357.000000)">
		
			<linearGradient id="suspect-3-highlight_1_" gradientUnits="userSpaceOnUse" x1="-397.4878" y1="1630.6868" x2="-397.4878" y2="1629.6868" gradientTransform="matrix(93.4283 0 0 -112.477 37295.6133 183780.2812)">
			<stop  offset="0" style="stop-color:#FD404F"/>
			<stop  offset="1" style="stop-color:#FF8F60"/>
		</linearGradient>
		<path id="suspect-3-highlight" class="st0" d="M184.9,404.4C184.8,404.5,184.8,404.5,184.9,404.4c-0.7,0.4-1.3,0.8-2,1.1
			c-0.2,0.1-0.4,0.2-0.6,0.3l-0.7,0.4v-0.8l0-5.5l-2.2-14.4l-7-11.1c-1.5-3.2-9.1-5.1-18.7-5.9l-0.2,0c-0.1-0.1-0.3-0.1-0.4-0.2
			c-5.7-2.5-10.8-3.1-14.7-2.6c-0.2,0-0.3,0-0.4,0.1v2.3l-3.3,4.5l-0.4,2.5l-0.7,4l0.4,3.4h-2.5l-2.8,6.6c0,0.2-0.1,0.5-0.2,0.9
			c-0.1,0.7-0.3,1.3-0.4,2c0,0.2-0.1,0.3-0.1,0.5c-0.3,1.6-0.5,2.7-0.5,3.1l0,5.5l0.4,6.4l-0.8-0.3c-0.1,0-0.2-0.1-0.3-0.1
			c-0.2-0.1-0.5-0.2-0.8-0.3c-0.3-0.1-0.6-0.2-0.9-0.3c-0.5-0.1-1-0.2-1.3-0.1c-0.2,0-0.2,0.1-0.2,0.3c0,0.6,0.5,2,1.2,3.9
			c0.1,0.3,0.2,0.5,0.3,0.8c0.3,0.8,0.7,1.7,1,2.6c0.1,0.3,0.2,0.6,0.3,0.8c0,0,0,0.1,0.1,0.1l5.5,2.4l-0.2,0.5l-1.8,3.7l-4.4,11.9
			l0,0.1l-9.2,14.5l-1.4,5.7l7.7,2.3L112.3,478h93.4l-9.3-20.4c-0.1-0.1-0.3-0.3-0.5-0.5c-0.5-0.4-1-0.8-1.4-1.2
			c-0.2-0.2-0.4-0.3-0.6-0.5c-0.8-0.6-1.5-1-1.9-1.1c-0.4-0.1-0.7-0.5-0.5-1c0.1-0.2,0.3-0.4,0.6-0.6c0.5-0.4,1.2-0.8,2.2-1.3
			c0.3-0.1,0.5-0.3,0.8-0.4c0.8-0.4,1.6-0.8,2.4-1.1c0.2-0.1,0.4-0.2,0.5-0.2l-5.9-8.8l0,0c-0.1-0.1-0.2-0.3-0.3-0.6
			c-0.3-0.5-0.6-1-0.9-1.5c-1-1.6-2-3.2-3.1-4.7c-0.7-1-1.4-1.9-2-2.7c-1.5-1.9-2.8-3.2-3.8-3.7c-1.8-0.9-2.5-2.8-2.5-5.8
			c0-0.7,0-1.4,0.1-2.5c0.1-1.9,0.1-2.5,0-2.8c-0.2-0.4-0.2-0.9-0.1-1.5l0.1-0.3l0.3,0c2.1-0.3,3.7-0.8,4.2-1.3
			c0.6-0.6,0.9-2.2,1-4.5c0.1-1.3,0-2.7-0.1-4C184.9,404.7,184.9,404.5,184.9,404.4z M192.4,453.8
			C192.4,453.8,192.4,453.8,192.4,453.8C192.4,453.8,192.4,453.8,192.4,453.8L192.4,453.8z"/>
	</g>
</g>
</svg>
