<?xml version="1.0" encoding="UTF-8"?>
<svg width="110px" height="81px" viewBox="0 0 110 81" version="1.1" xmlns="http://www.w3.org/2000/svg" xmlns:xlink="http://www.w3.org/1999/xlink">
    <!-- Generator: Sketch 52.3 (67297) - http://www.bohemiancoding.com/sketch -->
    <title>suspect 5 highlight</title>
    <desc>Created with Sketch.</desc>
    <defs>
        <linearGradient x1="50%" y1="0%" x2="50%" y2="100%" id="linearGradient-1">
            <stop stop-color="#FD404F" offset="0%"></stop>
            <stop stop-color="#FF8F60" offset="100%"></stop>
        </linearGradient>
    </defs>
    <g id="Page-1" stroke="none" stroke-width="1" fill="none" fill-rule="evenodd">
        <g id="characters" transform="translate(-63.000000, -601.000000)" fill="url(#linearGradient-1)" fill-rule="nonzero" stroke="#FFFFFF">
            <path d="M102.5,658.5 L95.0609739,658.5 L94.9419119,658.169433 C94.5119461,656.975663 94.3779962,655.835644 94.6165073,654.772807 C94.7639552,654.114913 95.0677896,653.497127 95.5178001,652.920126 L95.6294977,652.776908 L95.8070736,652.738769 C96.2688888,652.639581 96.7785082,652.500788 97.3275461,652.327088 C97.8578388,652.159318 98.4164774,651.961694 98.9935897,651.740347 C99.6734779,651.479582 100.343399,651.199881 100.973683,650.920216 C101.351249,650.752685 101.630837,650.622807 101.783093,650.549499 L102.5,650.204322 L102.5,658.5 Z M86.7559805,650.694276 C87.3062819,648.364202 88.7615568,646.324505 91.0828113,644.598744 L91.3756676,644.381017 L91.6723203,644.593542 C94.1256419,646.351131 95.0913635,648.408345 93.9370266,650.665476 C93.3534165,651.804572 93.4620582,652.184349 94.0987235,652.312581 L94.7279379,652.439313 L94.4511021,653.018393 C94.2718136,653.393425 94.1476067,653.72521 94.0703655,654.051811 C93.8033977,655.183114 93.91991,656.390123 94.3594918,657.655366 L94.50949,658.087103 L88.8390515,660.64711 L88.6175781,660.238064 C86.8145998,656.908088 86.0529394,653.667335 86.7559805,650.694276 Z M86.7559805,650.694276 C86.7559863,650.694251 86.755992,650.694227 86.7559977,650.694203 L86.7559634,650.694348 C86.7559691,650.694324 86.7559748,650.6943 86.7559805,650.694276 Z M168.565475,668.660349 C168.144721,667.540398 167.693502,666.818209 167.238765,666.453108 C166.5186,665.8749 165.70122,666.255369 164.797381,667.40009 C164.5683,667.690224 164.357468,668.0034 164.170861,668.316694 C164.059411,668.503807 163.98182,668.647438 163.943078,668.725129 L163.805013,669.002003 L149.046536,669.002003 L140.640673,661.41772 L148.842016,650.724485 L149.00553,650.586505 L163.925364,642.718501 L168.496086,634.695807 L161.468931,613.176465 C158.899302,610.409196 149.974803,607.711682 136.84925,605.268995 C131.232296,604.223671 125.21222,603.29228 119.191879,602.486824 C117.084559,602.204888 115.127831,601.958847 113.371973,601.750176 C112.757594,601.677162 112.212269,601.61404 111.742282,601.560996 C111.460583,601.529202 111.266779,601.507852 111.244213,601.499445 C104.315003,601.826204 98.1243488,603.685477 92.7353366,606.581068 C90.6474213,607.702933 88.8275369,608.904306 87.2866076,610.104416 C86.7488289,610.523249 86.284797,610.911495 85.8958741,611.259027 C85.7739656,611.367962 85.6737365,611.459913 85.5953861,611.533389 L86.3879232,625.83538 L78.6102383,632.852883 L84.6052135,641.867579 C84.6728844,641.887156 84.7533016,641.910888 84.8455648,641.938747 C85.1776233,642.039016 85.5470537,642.158253 85.944632,642.296224 C87.081116,642.690617 88.2179975,643.15688 89.2822782,643.694095 C89.5013243,643.804663 89.7154132,643.917381 89.9241546,644.032257 L90.5691562,644.387218 L90.0013877,644.8559 C87.8316215,646.647002 86.4726646,648.735636 85.9244112,651.114102 C85.1886588,654.304046 85.9428028,657.766116 87.7886553,661.298454 L88.0316196,661.763405 L84.7914976,663.263179 L84.7914976,669.196294 L84.1330095,668.97622 C84.0407766,668.945395 83.8297484,668.892983 83.4975351,668.838475 C80.4505803,668.338542 75.7925148,668.89392 69.4225252,671.350422 C66.6036637,672.437251 64.8757611,673.80803 64.0579691,675.380825 C63.2023031,677.02646 63.3754541,678.803012 64.1966179,680.523434 C64.3502284,680.845264 64.514727,681.136858 64.678587,681.392092 C64.7037981,681.431362 64.7274044,681.467366 64.7491977,681.5 L172.332243,681.5 L168.565475,668.660349 Z" id="suspect-5-highlight"></path>
        </g>
    </g>
</svg>