<?xml version="1.0" encoding="utf-8"?>
<!-- Generator: Adobe Illustrator 23.0.1, SVG Export Plug-In . SVG Version: 6.00 Build 0)  -->
<svg version="1.1" id="Layer_1" xmlns="http://www.w3.org/2000/svg" xmlns:xlink="http://www.w3.org/1999/xlink" x="0px" y="0px"
	 viewBox="0 0 168 130" style="enable-background:new 0 0 168 130;" xml:space="preserve">
<style type="text/css">
	.st0{fill-rule:evenodd;clip-rule:evenodd;fill:#010310;stroke:#B4CECB;}
</style>
<title>suspect 2</title>
<desc>Created with Sketch.</desc>
<g id="Page-1">
	<g id="characters" transform="translate(-264.000000, -149.000000)">
		<path id="suspect-2" class="st0" d="M384,187.9c-1.7-5.3-10.9-19.7-10.9-19.7s-11.4-5.7-15.5-6.9c-2.4-0.7-7.3-1.2-9.7-1.2
			s-9.7,1.2-9.7,1.2s-12.3,4.2-15.5,6.9c-4.3,3.7-9.2,14.4-10.9,19.7l-9.7,15.4v5.3l2.9,11.7v27.2l4.6-5.9l3.4-5.9l7.2-3.2
			c0,0-1.4,5.9,0,5.3l1.4-0.5c0,0,4.6,5.3,6.3,6.4l-0.6,10.1l-14.6,14.4h14.6h20.6h20.6h15.6l-15.6-14.4l-0.6-10.1
			c1.7-1.1,6.3-6.4,6.3-6.4l1.4,0.5c1.4,0.5,0-5.3,0-5.3l5.4,2.4v9.8l4.2-4.9l1,1.7l4.6,5.9v-27.2l2.9-11.7v-5.3L384,187.9z"/>
	</g>
</g>
</svg>
