<?xml version="1.0" encoding="UTF-8"?>
<svg width="130px" height="118px" viewBox="0 0 130 118" version="1.1" xmlns="http://www.w3.org/2000/svg" xmlns:xlink="http://www.w3.org/1999/xlink">
    <!-- Generator: Sketch 52.3 (67297) - http://www.bohemiancoding.com/sketch -->
    <title>suspect 4 highlight</title>
    <desc>Created with Sketch.</desc>
    <defs>
        <linearGradient x1="50%" y1="0%" x2="50%" y2="100%" id="linearGradient-1">
            <stop stop-color="#FD404F" offset="0%"></stop>
            <stop stop-color="#FF8F60" offset="100%"></stop>
        </linearGradient>
    </defs>
    <g id="Page-1" stroke="none" stroke-width="1" fill="none" fill-rule="evenodd">
        <g id="characters" transform="translate(-258.000000, -350.000000)" fill="url(#linearGradient-1)" fill-rule="nonzero" stroke="#FFFFFF">
            <path d="M258.528046,429.828536 L264.018969,445.249537 L302.962485,467.21774 L307.570132,449.327363 L305.213214,442.85009 L336.273455,456.910573 L345.465076,433.612733 L321.004481,430.242508 L321.257489,429.641998 C321.295423,429.551961 321.367313,429.378133 321.468303,429.128811 C321.63706,428.712183 321.825221,428.236618 322.027927,427.71042 C322.607281,426.206492 323.186687,424.599353 323.727263,422.955667 C324.257033,421.344835 324.720952,419.783827 325.100439,418.304903 C326.05789,414.57356 326.419534,411.597077 326.050282,409.749516 L323.631687,402.062056 L324.794203,402.810408 C324.923694,402.893766 325.165414,403.050859 325.503351,403.272864 C326.065994,403.642488 326.692793,404.059352 327.367746,404.514641 C329.296455,405.815652 331.225307,407.16431 333.026628,408.490408 C333.74663,409.02046 334.433021,409.537382 335.08102,410.038565 C335.886693,410.661699 336.62661,411.255485 337.294162,411.816427 L334.708082,401.13237 L359.826184,401.13237 L348.857364,389.592261 L349.866889,389.486271 C349.956556,389.476857 350.12926,389.459312 350.379488,389.434797 C350.795879,389.394004 351.278765,389.348566 351.822636,389.299645 C353.375903,389.159931 355.106932,389.020238 356.971664,388.889865 C362.343506,388.514291 367.718167,388.290248 372.737001,388.293798 C376.051917,388.296143 379.084294,388.398446 381.787056,388.61152 C381.29869,388.46613 380.800709,388.31719 380.29384,388.16486 C374.39623,386.39244 368.498444,384.524578 362.99263,382.647281 C359.276277,381.38013 355.865441,380.150881 352.825837,378.97384 C347.305209,376.83606 343.139391,374.92234 340.57441,373.279084 C338.77591,372.126847 336.124496,369.704497 332.824969,366.303504 C332.282841,365.744706 331.727096,365.163317 331.159419,364.56158 C329.226661,362.512858 327.23921,360.318642 325.306894,358.124529 C324.630644,357.356659 324.009539,356.643592 323.457343,356.00356 C323.263993,355.779455 323.093039,355.580453 322.946203,355.408834 C322.79747,355.23473 322.79747,355.23473 322.765903,355.197564 L322.52025,354.908331 L322.732732,354.593922 C322.748007,354.571319 322.782546,354.508106 322.81987,354.41363 C323.025797,353.892381 322.963577,353.344986 322.415176,352.787621 C320.789733,351.135609 315.851245,350.218836 306.58899,350.57465 L281.872262,359.718847 L272.380435,366.029244 L267.658235,372.700896 C267.590141,372.867346 267.482659,373.136423 267.34805,373.484396 C267.098507,374.12948 266.848958,374.807165 266.616281,375.484605 C266.473218,375.901136 266.340949,376.305036 266.221683,376.691932 C265.655761,378.527778 265.436249,379.884835 265.629119,380.17337 C265.629615,380.174112 265.629615,380.174112 265.63011,380.174854 C266.020113,380.759956 266.370143,382.451854 266.739013,385.076336 C266.8885,386.139923 267.028307,387.278357 267.154632,388.416634 C267.198832,388.814909 267.238197,389.184776 267.27224,389.516808 C267.286952,389.660297 267.298405,389.774437 267.306418,389.855716 L269.014633,393.751956 L268.772451,393.993491 L265.974488,396.783835 C265.903208,396.85788 265.770428,397.00832 265.596666,397.227017 C265.303646,397.59581 265.00999,398.017043 264.736059,398.482233 C263.194173,401.100665 262.935181,403.806929 264.736552,406.342279 C266.261385,408.488414 269.20322,410.389916 273.790093,411.949288 L273.973914,412.01178 L278.509727,420.268948 L277.607731,420.216967 C277.555081,420.213933 277.45238,420.208541 277.303941,420.201574 C277.055587,420.189917 276.770104,420.178249 276.451811,420.167353 C274.032843,420.084544 271.428227,420.093416 268.987757,420.256363 C264.432635,420.560503 261.415991,421.372822 260.880348,422.567863 L258.528046,429.828536 Z" id="suspect-4-highlight"></path>
        </g>
    </g>
</svg>