<?xml version="1.0" encoding="UTF-8"?>
<svg width="132px" height="120px" viewBox="0 0 132 120" version="1.1" xmlns="http://www.w3.org/2000/svg" xmlns:xlink="http://www.w3.org/1999/xlink">
    <!-- Generator: Sketch 52.3 (67297) - http://www.bohemiancoding.com/sketch -->
    <title>suspect 4</title>
    <desc>Created with Sketch.</desc>
    <g id="Page-1" stroke="none" stroke-width="1" fill="none" fill-rule="evenodd">
        <g id="characters" transform="translate(-251.000000, -349.000000)" fill="#010310" stroke="#B4CECB">
            <path d="M271.636498,419.717795 C271.636498,419.717795 256.007543,418.817124 254.404688,422.413759 L252,429.836131 L257.610601,445.593242 L297.28421,467.973294 L302.092979,449.302008 L300.089308,443.79553 L330.545789,457.5827 L340.163731,433.204271 L315.718262,429.836131 C315.718262,429.836131 321.729476,415.568576 320.527234,409.59946 L318.523563,403.230829 C318.523563,403.230829 327.465054,408.986777 332.148847,413.222111 L329.343546,401.63237 L354.991258,401.63237 L343.919097,389.983538 C343.919097,389.983538 369.416756,387.306531 382.294,389.983538 C382.294,389.983538 345.458049,379.657883 334.844136,372.858075 C329.529595,369.453231 317.147,354.87389 317.147,354.87389 C317.147,354.87389 320.928049,349.279078 300.490123,350.078107 L275.644041,359.270158 L266.026099,365.664401 L261.21733,372.45836 C261.21733,372.45836 258.412029,379.252318 259.213457,380.451264 C260.014885,381.650008 260.816515,389.983538 260.816515,389.983538 L262.41937,393.639465 L259.614272,396.437073 C259.614272,396.437073 249.996329,406.428152 267.629157,412.422679 L271.636498,419.717795 Z" id="suspect-4"></path>
        </g>
    </g>
</svg>