<?xml version="1.0" encoding="utf-8"?>
<!-- Generator: Adobe Illustrator 23.0.1, SVG Export Plug-In . SVG Version: 6.00 Build 0)  -->
<svg version="1.1" id="Layer_1" xmlns="http://www.w3.org/2000/svg" xmlns:xlink="http://www.w3.org/1999/xlink" x="0px" y="0px"
	 viewBox="0 0 168 130" style="enable-background:new 0 0 168 130;" xml:space="preserve">
<style type="text/css">
	.st0{fill-rule:evenodd;clip-rule:evenodd;fill:#010310;stroke:#B4CECB;}
</style>
<title>suspect 5</title>
<desc>Created with Sketch.</desc>
<g id="Page-1">
	<g id="characters" transform="translate(-56.000000, -600.000000)">
		<path id="suspect-5" class="st0" d="M124,681.5h-6.6c-0.4-1-0.5-2.1-0.3-3.1c0.1-0.6,0.4-1.1,0.8-1.7c2.6-0.6,6.1-2.2,6.1-2.2
			V681.5z M109.2,674.3c0.5-2.2,1.9-4.2,4.1-5.8c1.9,1.4,3.2,3.2,2.1,5.4c-0.8,1.5-0.4,2.2,0.5,2.4c-0.2,0.4-0.3,0.7-0.4,1.1
			c-0.3,1.3-0.1,2.7,0.3,3.9l-4.8,2.2C109.6,680.8,108.5,677.5,109.2,674.3z M191,692c-2.4-6.4-5.5,0-5.5,0h-14.3l-7.9-7.1l7.9-10.3
			l15-7.9l4.8-8.3l-7.1-21.8c-6.3-7.1-50.7-11.9-50.7-11.9c-16.6,0.8-26.1,10.3-26.1,10.3l0.8,14.3l-7.9,7.1l6.3,9.5
			c0,0,2.8,0.8,5.4,2.2c-2.2,1.9-3.7,4-4.2,6.5c-0.9,3.8,0.3,7.5,1.9,10.5l-3.1,1.4v5.6c0,0-4.8-1.6-15,2.4
			c-10.3,4-4.8,11.1-4.8,11.1h34.8H195L191,692z"/>
	</g>
</g>
</svg>
