<?xml version="1.0" encoding="utf-8"?>
<!-- Generator: Adobe Illustrator 23.0.1, SVG Export Plug-In . SVG Version: 6.00 Build 0)  -->
<svg version="1.1" id="Layer_1" xmlns="http://www.w3.org/2000/svg" xmlns:xlink="http://www.w3.org/1999/xlink" x="0px" y="0px"
	 viewBox="0 0 168 130" style="enable-background:new 0 0 168 130;" xml:space="preserve">
<style type="text/css">
	.st0{fill:url(#suspect-2-highlight_1_);stroke:#FFFFFF;}
</style>
<title>suspect 2 highlight</title>
<desc>Created with Sketch.</desc>
<g id="Page-1">
	<g id="characters" transform="translate(-271.000000, -150.000000)">
		
			<linearGradient id="suspect-2-highlight_1_" gradientUnits="userSpaceOnUse" x1="-200.8118" y1="1422.6626" x2="-200.8118" y2="1421.6626" gradientTransform="matrix(90.714 0 0 -107.313 18571.2949 152831.1719)">
			<stop  offset="0" style="stop-color:#FD404F"/>
			<stop  offset="1" style="stop-color:#FF8F60"/>
		</linearGradient>
		<path id="suspect-2-highlight" class="st0" d="M379.7,169c-0.1-0.1-0.3-0.1-0.5-0.2c-0.5-0.2-1.1-0.5-1.7-0.8
			c-1.7-0.8-3.5-1.7-5.2-2.5c-0.3-0.2-0.7-0.3-1-0.5c-3.1-1.4-5.6-2.4-7-2.9c-2.1-0.6-6.9-1.2-9.6-1.2c-0.8,0-2.4,0.2-4.4,0.4
			c-0.4,0.1-0.9,0.1-1.3,0.2c-0.9,0.1-1.9,0.3-2.8,0.4c-0.3,0.1-0.6,0.1-0.9,0.1c-0.2,0-0.3,0-0.2,0c-0.1,0-0.4,0.1-0.7,0.2
			c-0.6,0.2-1.2,0.4-1.8,0.7c-1.9,0.7-3.8,1.4-5.6,2.2c-1.3,0.5-2.5,1.1-3.6,1.6c-1.7,0.8-3,1.6-3.7,2.2
			c-3.6,3.1-8.5,12.6-10.7,19.5l-0.1,0.1l-9.7,15.3v5.1l2.9,11.7l0,0.1v25.7l3.7-4.7l3.5-6l8.2-3.7l-0.2,1c0,0.1-0.1,0.2-0.1,0.4
			c-0.1,0.3-0.1,0.7-0.2,1.1c-0.1,0.4-0.1,0.8-0.2,1.2c-0.1,0.8-0.1,1.4-0.1,1.8c0,0.1,0,0.2,0,0.2l1.7-0.6l0.2,0.3
			c0,0.1,0.1,0.1,0.2,0.3c0.2,0.2,0.4,0.5,0.7,0.7c0.7,0.8,1.4,1.5,2.1,2.2c0.2,0.2,0.3,0.4,0.5,0.5c1.2,1.3,2.2,2.2,2.7,2.5
			l0.3,0.2l-0.6,10.6l-13.8,13.7h69L375,254.7l-0.6-10.6l0.3-0.2c0.5-0.3,1.5-1.2,2.7-2.5c0.2-0.2,0.3-0.3,0.5-0.5
			c0.7-0.7,1.4-1.5,2.1-2.2c0.2-0.3,0.5-0.5,0.7-0.7c0.1-0.1,0.2-0.2,0.2-0.3l0.2-0.3l0.3,0.1l1.3,0.5c0-0.1,0-0.1,0-0.2
			c0-0.4,0-1.1-0.1-1.8c-0.1-0.4-0.1-0.8-0.2-1.2c-0.1-0.4-0.1-0.7-0.2-1.1c0-0.2-0.1-0.3-0.1-0.4l-0.2-1l6.7,3v8.8l3.8-4.4l0.4,0.6
			l0.9,1.6l3.7,4.7v-25.7l0-0.1l2.9-11.7V204l-9.7-15.3l-0.1-0.1c-0.6-1.8-2.1-4.9-4.3-8.8c-0.3-0.5-0.6-1.1-0.9-1.6
			c-1.2-2.1-2.5-4.3-3.8-6.4c-0.5-0.7-0.9-1.4-1.3-2C380,169.4,379.8,169.2,379.7,169z M382.7,238C382.7,238,382.7,238,382.7,238
			C382.7,238,382.7,238,382.7,238L382.7,238z"/>
	</g>
</g>
</svg>
