<?xml version="1.0" encoding="utf-8"?>
<!-- Generator: Adobe Illustrator 23.0.1, SVG Export Plug-In . SVG Version: 6.00 Build 0)  -->
<svg version="1.1" id="Layer_1" xmlns="http://www.w3.org/2000/svg" xmlns:xlink="http://www.w3.org/1999/xlink" x="0px" y="0px"
	 viewBox="0 0 168 130" style="enable-background:new 0 0 168 130;" xml:space="preserve">
<style type="text/css">
	.st0{fill-rule:evenodd;clip-rule:evenodd;fill:url(#suspect-6_1_);stroke:#FFFFFF;}
</style>
<title>suspect 6</title>
<desc>Created with Sketch.</desc>
<g id="Page-1">
	<g id="characters" transform="translate(-241.000000, -580.000000)">
		<linearGradient id="suspect-6_1_" gradientUnits="userSpaceOnUse" x1="258" y1="645" x2="392" y2="645">
			<stop  offset="0" style="stop-color:#FD404F"/>
			<stop  offset="1" style="stop-color:#FF8F60"/>
		</linearGradient>
		<path id="suspect-6" class="st0" d="M288.9,665c0,0-12.6,0.8-4.9-8.8c7.7-9.6,7.7-9.6,10.5-11.2c2.4-1.4,5.4-13.5,7.5-20.4
			c0.3-1.1,0.7-2.1,0.9-2.9c2.1-5.6,13.2-27.8,20.3-27.3c10.5,0.8,21.7-1.6,25.3,5.6l7.7,16l7,13.6v10.4c0,0,4.9,6.4,7.7,14.4
			c2.8,8,9.8,10.4,9.8,10.4l-7,7.2c0,0,9.8-3.2,14.7,8l3.5,15.2H258C258,695.5,274.8,665,288.9,665"/>
	</g>
</g>
</svg>
