<?xml version="1.0" encoding="UTF-8"?>
<svg width="82px" height="113px" viewBox="0 0 82 113" version="1.1" xmlns="http://www.w3.org/2000/svg" xmlns:xlink="http://www.w3.org/1999/xlink">
    <!-- Generator: Sketch 52.3 (67297) - http://www.bohemiancoding.com/sketch -->
    <title>suspect 1 highlight</title>
    <desc>Created with Sketch.</desc>
    <defs>
        <linearGradient x1="50%" y1="0%" x2="50%" y2="100%" id="linearGradient-1">
            <stop stop-color="#FD404F" offset="0%"></stop>
            <stop stop-color="#FF8F60" offset="100%"></stop>
        </linearGradient>
    </defs>
    <g id="Page-1" stroke="none" stroke-width="1" fill="none" fill-rule="evenodd">
        <g id="characters" transform="translate(-86.000000, -138.000000)" fill="url(#linearGradient-1)" fill-rule="nonzero" stroke="#FFFFFF">
            <path d="M88.5622014,193.43396 L92.5461285,195.598233 L92.6972548,195.724456 L97.4386014,201.626784 L97.4386014,213.120008 L87.0768584,226.496988 L92.1167992,241.741465 L126.956561,250.463299 L139.760143,242.447996 L129.06017,231.397519 L130.073788,231.285375 C130.207796,231.270549 130.458304,231.226994 130.785322,231.142569 C131.33321,231.001123 131.880655,230.795179 132.387646,230.514699 C133.26984,230.026646 133.93201,229.367212 134.300929,228.509834 C134.741955,227.484878 135.716101,225.110207 137.061357,221.792658 C137.08272,221.739973 137.08272,221.739973 137.104082,221.687284 C137.759221,220.07135 138.458567,218.339912 139.156171,216.608463 C139.400335,216.002447 139.62684,215.439721 139.829943,214.934717 C140.038778,214.415306 140.038778,214.415306 140.127751,214.217086 L145.488616,205.827259 L147.433065,198.469152 L153.942833,191.986341 L153.942833,188.823627 L146.908395,188.434459 L149.725972,171.997907 L153.890011,166.720088 L151.928938,160.080466 L152.236442,159.87629 L156.849994,156.813566 C156.933774,156.752515 157.091737,156.636511 157.313271,156.472391 C157.682969,156.198505 158.095038,155.890154 158.538854,155.554183 C159.80667,154.594439 161.074369,153.60609 162.256678,152.64417 C162.624353,152.345032 162.978639,152.052542 163.317961,151.767723 C165.239137,150.155136 166.602539,148.854551 167.206877,148.013016 C167.67557,147.360364 167.733323,147.427551 166.458354,147.722272 L147.739144,149.664049 L147.582636,149.54714 L141.470796,144.974732 L136.564138,142.343531 L126.759168,142.343531 L126.759168,138.5 L121.379416,138.5 L107.354555,146.119021 L110.833247,139.189847 L93.0705853,148.742469 C93.0171889,148.851247 92.9453492,148.999363 92.8568736,149.184484 C92.6297578,149.659689 92.376493,150.205276 92.1036221,150.812795 C91.323577,152.549486 90.5434065,154.432873 89.8154586,156.395116 C88.7833607,159.17722 87.9435976,161.885176 87.3642431,164.429161 C85.9717184,170.543832 86.2029812,175.155335 88.4341395,177.638743 L88.8209565,178.069293 L88.3387715,178.389446 C88.1948988,178.484972 87.9510613,178.709829 87.7008763,179.069731 C86.6593764,180.567976 86.6593764,182.747029 88.490477,185.786258 L88.5622014,185.905305 L88.5622014,193.43396 Z" id="suspect-1-highlight"></path>
        </g>
    </g>
</svg>