<?xml version="1.0" encoding="UTF-8"?>
<svg width="136px" height="103px" viewBox="0 0 136 103" version="1.1" xmlns="http://www.w3.org/2000/svg" xmlns:xlink="http://www.w3.org/1999/xlink">
    <!-- Generator: Sketch 52.3 (67297) - http://www.bohemiancoding.com/sketch -->
    <title>suspect 6</title>
    <desc>Created with Sketch.</desc>
    <g id="Page-1" stroke="none" stroke-width="1" fill="none" fill-rule="evenodd">
        <g id="characters" transform="translate(-241.000000, -580.000000)" fill="#010310" stroke="#B4CECB">
            <path d="M272.869436,651.542589 C272.869436,651.542589 260.241277,652.344036 267.958485,642.726066 C275.675089,633.108096 275.675089,633.108096 278.48195,631.505202 C280.899389,630.123753 283.837869,618.035312 285.951015,611.126245 C286.290325,610.015382 286.609109,609.037993 286.900723,608.261421 C289.00602,602.650686 300.107279,580.466804 307.246089,581.009798 C317.770158,581.811245 328.995188,579.407511 332.50301,586.620533 L340.220218,602.650686 L347.235861,616.279531 L347.235861,626.695914 C347.235861,626.695914 352.147416,633.108096 354.953069,641.123172 C357.75993,649.138249 364.775574,651.55897 364.775574,651.55897 L357.75993,658.756219 C357.75993,658.756219 367.581831,655.549824 372.492782,666.771295 L376,682 L242,682 C242,682 258.838148,651.542589 272.869436,651.542589" id="suspect-6"></path>
        </g>
    </g>
</svg>