<?xml version="1.0" encoding="utf-8"?>
<!-- Generator: Adobe Illustrator 23.0.1, SVG Export Plug-In . SVG Version: 6.00 Build 0)  -->
<svg version="1.1" id="Layer_1" xmlns="http://www.w3.org/2000/svg" xmlns:xlink="http://www.w3.org/1999/xlink" x="0px" y="0px"
	 viewBox="0 0 168 130" style="enable-background:new 0 0 168 130;" xml:space="preserve">
<style type="text/css">
	.st0{fill-rule:evenodd;clip-rule:evenodd;fill:#010310;stroke:#B4CECB;}
</style>
<title>suspect 3</title>
<desc>Created with Sketch.</desc>
<g id="Page-1">
	<g id="characters" transform="translate(-68.000000, -356.000000)">
		<path id="suspect-3" class="st0" d="M185.4,440c0,0-6.6-11.5-10.3-13.4c-3.7-1.9-1.5-9.3-2.2-10.8c-0.2-0.3-0.1-0.7,0-1.1
			c1.8-0.3,3.7-0.7,4.5-1.5c1.8-1.8,1-10.1,1-10.1s-1.6,1-3.2,1.8v-5.5l-2.2-14.5l-7-11.2c-1.9-4.2-13.5-5.7-19.1-6.2
			c-0.1-0.1-0.3-0.1-0.4-0.2c-9.2-4.1-15.9-2.5-15.9-2.5v2.5l-3.3,4.5l-0.4,2.6l-0.7,4.1l0.4,2.9h-2.2l-3,7c0,0-1.1,5.4-1.1,6.5v5.5
			l0.4,5.6c0,0-4.3-1.9-4.2,0c0.1,1.9,3.1,8.6,3.1,8.6l5.2,2.2l-1.8,3.7l-4.4,11.9L109,447l-1.5,6.3l7.6,2.3L104.5,478h95l-9.6-21.2
			c0,0-3.3-3-4.8-3.4c-1.5-0.4,6.6-4,6.6-4L185.4,440z"/>
	</g>
</g>
</svg>
