<?xml version="1.0" encoding="utf-8"?>
<!-- Generator: Adobe Illustrator 23.0.1, SVG Export Plug-In . SVG Version: 6.00 Build 0)  -->
<svg version="1.1" id="Layer_1" xmlns="http://www.w3.org/2000/svg" xmlns:xlink="http://www.w3.org/1999/xlink" x="0px" y="0px"
	 viewBox="0 0 168 130" style="enable-background:new 0 0 168 130;" xml:space="preserve">
<style type="text/css">
	.st0{fill:url(#suspect-4-highlight_1_);stroke:#FFFFFF;}
</style>
<title>suspect 4 highlight</title>
<desc>Created with Sketch.</desc>
<g id="Page-1">
	<g id="characters" transform="translate(-258.000000, -350.000000)">
		
			<linearGradient id="suspect-4-highlight_1_" gradientUnits="userSpaceOnUse" x1="-215.4678" y1="1624.0787" x2="-215.4678" y2="1623.0787" gradientTransform="matrix(123.259 0 0 -116.7193 26897.5078 189917.7812)">
			<stop  offset="0" style="stop-color:#FD404F"/>
			<stop  offset="1" style="stop-color:#FF8F60"/>
		</linearGradient>
		<path id="suspect-4-highlight" class="st0" d="M277.5,435.8l5.5,15.4l38.9,22l4.6-17.9l-2.4-6.5l31.1,14.1l9.2-23.3l-24.5-3.4
			l0.3-0.6c0-0.1,0.1-0.3,0.2-0.5c0.2-0.4,0.4-0.9,0.6-1.4c0.6-1.5,1.2-3.1,1.7-4.8c0.5-1.6,1-3.2,1.4-4.7c1-3.7,1.3-6.7,0.9-8.6
			l-2.4-7.7l1.2,0.7c0.1,0.1,0.4,0.2,0.7,0.5c0.6,0.4,1.2,0.8,1.9,1.2c1.9,1.3,3.9,2.6,5.7,4c0.7,0.5,1.4,1,2.1,1.5
			c0.8,0.6,1.5,1.2,2.2,1.8l-2.6-10.7h25.1l-11-11.5l1-0.1c0.1,0,0.3,0,0.5-0.1c0.4,0,0.9-0.1,1.4-0.1c1.6-0.1,3.3-0.3,5.1-0.4
			c5.4-0.4,10.7-0.6,15.8-0.6c3.3,0,6.3,0.1,9.1,0.3c-0.5-0.1-1-0.3-1.5-0.4c-5.9-1.8-11.8-3.6-17.3-5.5c-3.7-1.3-7.1-2.5-10.2-3.7
			c-5.5-2.1-9.7-4.1-12.3-5.7c-1.8-1.2-4.4-3.6-7.7-7c-0.5-0.6-1.1-1.1-1.7-1.7c-1.9-2-3.9-4.2-5.9-6.4c-0.7-0.8-1.3-1.5-1.8-2.1
			c-0.2-0.2-0.4-0.4-0.5-0.6c-0.1-0.2-0.1-0.2-0.2-0.2l-0.2-0.3l0.2-0.3c0,0,0-0.1,0.1-0.2c0.2-0.5,0.1-1.1-0.4-1.6
			c-1.6-1.7-6.6-2.6-15.8-2.2l-24.7,9.1l-9.5,6.3l-4.7,6.7c-0.1,0.2-0.2,0.4-0.3,0.8c-0.2,0.6-0.5,1.3-0.7,2
			c-0.1,0.4-0.3,0.8-0.4,1.2c-0.6,1.8-0.8,3.2-0.6,3.5c0,0,0,0,0,0c0.4,0.6,0.7,2.3,1.1,4.9c0.1,1.1,0.3,2.2,0.4,3.3
			c0,0.4,0.1,0.8,0.1,1.1c0,0.1,0,0.3,0,0.3l1.7,3.9l-0.2,0.2l-2.8,2.8c-0.1,0.1-0.2,0.2-0.4,0.4c-0.3,0.4-0.6,0.8-0.9,1.3
			c-1.5,2.6-1.8,5.3,0,7.9c1.5,2.1,4.5,4,9.1,5.6l0.2,0.1l4.5,8.3l-0.9-0.1c-0.1,0-0.2,0-0.3,0c-0.2,0-0.5,0-0.9,0
			c-2.4-0.1-5-0.1-7.5,0.1c-4.6,0.3-7.6,1.1-8.1,2.3L277.5,435.8z"/>
	</g>
</g>
</svg>
