<?xml version="1.0" encoding="utf-8"?>
<!-- Generator: Adobe Illustrator 23.0.1, SVG Export Plug-In . SVG Version: 6.00 Build 0)  -->
<svg version="1.1" id="Layer_1" xmlns="http://www.w3.org/2000/svg" xmlns:xlink="http://www.w3.org/1999/xlink" x="0px" y="0px"
	 viewBox="0 0 168 130" style="enable-background:new 0 0 168 130;" xml:space="preserve">
<style type="text/css">
	.st0{fill:url(#suspect-5-highlight_1_);stroke:#FFFFFF;}
</style>
<title>suspect 5 highlight</title>
<desc>Created with Sketch.</desc>
<g id="Page-1">
	<g id="characters" transform="translate(-63.000000, -601.000000)">
		
			<linearGradient id="suspect-5-highlight_1_" gradientUnits="userSpaceOnUse" x1="-409.8417" y1="1869.7876" x2="-409.8417" y2="1868.7876" gradientTransform="matrix(108.8392 0 0 -80.0005 44753.7422 150210.0312)">
			<stop  offset="0" style="stop-color:#FD404F"/>
			<stop  offset="1" style="stop-color:#FF8F60"/>
		</linearGradient>
		<path id="suspect-5-highlight" class="st0" d="M131.5,683h-7.4l-0.1-0.3c-0.4-1.2-0.6-2.3-0.3-3.4c0.1-0.7,0.5-1.3,0.9-1.9
			l0.1-0.1l0.2,0c0.5-0.1,1-0.2,1.5-0.4c0.5-0.2,1.1-0.4,1.7-0.6c0.7-0.3,1.3-0.5,2-0.8c0.4-0.2,0.7-0.3,0.8-0.4l0.7-0.3V683z
			 M115.8,675.2c0.6-2.3,2-4.4,4.3-6.1l0.3-0.2l0.3,0.2c2.5,1.8,3.4,3.8,2.3,6.1c-0.6,1.1-0.5,1.5,0.2,1.6l0.6,0.1l-0.3,0.6
			c-0.2,0.4-0.3,0.7-0.4,1c-0.3,1.1-0.2,2.3,0.3,3.6l0.2,0.4l-5.7,2.6l-0.2-0.4C115.8,681.4,115.1,678.2,115.8,675.2z M115.8,675.2
			C115.8,675.2,115.8,675.2,115.8,675.2L115.8,675.2C115.8,675.2,115.8,675.2,115.8,675.2z M197.6,693.2c-0.4-1.1-0.9-1.8-1.3-2.2
			c-0.7-0.6-1.5-0.2-2.4,0.9c-0.2,0.3-0.4,0.6-0.6,0.9c-0.1,0.2-0.2,0.3-0.2,0.4l-0.1,0.3H178l-8.4-7.6l8.2-10.7l0.2-0.1l14.9-7.9
			l4.6-8l-7-21.5c-2.6-2.8-11.5-5.5-24.6-7.9c-5.6-1-11.6-2-17.7-2.8c-2.1-0.3-4.1-0.5-5.8-0.7c-0.6-0.1-1.2-0.1-1.6-0.2
			c-0.3,0-0.5-0.1-0.5-0.1c-6.9,0.3-13.1,2.2-18.5,5.1c-2.1,1.1-3.9,2.3-5.4,3.5c-0.5,0.4-1,0.8-1.4,1.2c-0.1,0.1-0.2,0.2-0.3,0.3
			l0.8,14.3l-7.8,7l6,9c0.1,0,0.1,0,0.2,0.1c0.3,0.1,0.7,0.2,1.1,0.4c1.1,0.4,2.3,0.9,3.3,1.4c0.2,0.1,0.4,0.2,0.6,0.3l0.6,0.4
			l-0.6,0.5c-2.2,1.8-3.5,3.9-4.1,6.3c-0.7,3.2,0,6.7,1.9,10.2l0.2,0.5l-3.2,1.5v5.9l-0.7-0.2c-0.1,0-0.3-0.1-0.6-0.1
			c-3-0.5-7.7,0.1-14.1,2.5c-2.8,1.1-4.5,2.5-5.4,4c-0.9,1.6-0.7,3.4,0.1,5.1c0.2,0.3,0.3,0.6,0.5,0.9c0,0,0,0.1,0.1,0.1h107.6
			L197.6,693.2z"/>
	</g>
</g>
</svg>
