<?xml version="1.0" encoding="utf-8"?>
<!-- Generator: Adobe Illustrator 23.0.1, SVG Export Plug-In . SVG Version: 6.00 Build 0)  -->
<svg version="1.1" id="Layer_1" xmlns="http://www.w3.org/2000/svg" xmlns:xlink="http://www.w3.org/1999/xlink" x="0px" y="0px"
	 viewBox="0 0 168 130" style="enable-background:new 0 0 168 130;" xml:space="preserve">
<style type="text/css">
	.st0{fill:url(#suspect-1-highlight_1_);stroke:#FFFFFF;}
</style>
<title>suspect 1 highlight</title>
<desc>Created with Sketch.</desc>
<g id="Page-1">
	<g id="characters" transform="translate(-86.000000, -138.000000)">
		
			<linearGradient id="suspect-1-highlight_1_" gradientUnits="userSpaceOnUse" x1="-385.0692" y1="1411.1305" x2="-385.0692" y2="1410.1305" gradientTransform="matrix(81.0169 0 0 -111.9633 31367.1113 158141.8281)">
			<stop  offset="0" style="stop-color:#FD404F"/>
			<stop  offset="1" style="stop-color:#FF8F60"/>
		</linearGradient>
		<path id="suspect-1-highlight" class="st0" d="M131.6,201.9l4,2.2l0.2,0.1l4.7,5.9v11.5L130.1,235l5,15.2L170,259l12.8-8
			l-10.7-11.1l1-0.1c0.1,0,0.4-0.1,0.7-0.1c0.5-0.1,1.1-0.3,1.6-0.6c0.9-0.5,1.5-1.1,1.9-2c0.4-1,1.4-3.4,2.8-6.7c0-0.1,0-0.1,0-0.1
			c0.7-1.6,1.4-3.3,2.1-5.1c0.2-0.6,0.5-1.2,0.7-1.7c0.2-0.5,0.2-0.5,0.3-0.7l5.4-8.4l1.9-7.4l6.5-6.5v-3.2l-7-0.4l2.8-16.4l4.2-5.3
			l-2-6.6l0.3-0.2l4.6-3.1c0.1-0.1,0.2-0.2,0.5-0.3c0.4-0.3,0.8-0.6,1.2-0.9c1.3-1,2.5-1.9,3.7-2.9c0.4-0.3,0.7-0.6,1.1-0.9
			c1.9-1.6,3.3-2.9,3.9-3.8c0.5-0.7,0.5-0.6-0.7-0.3l-18.7,1.9l-0.2-0.1l-6.1-4.6l-4.9-2.6h-9.8V147h-5.4l-14,7.6l3.5-6.9l-17.8,9.6
			c-0.1,0.1-0.1,0.3-0.2,0.4c-0.2,0.5-0.5,1-0.8,1.6c-0.8,1.7-1.6,3.6-2.3,5.6c-1,2.8-1.9,5.5-2.5,8c-1.4,6.1-1.2,10.7,1.1,13.2
			l0.4,0.4l-0.5,0.3c-0.1,0.1-0.4,0.3-0.6,0.7c-1,1.5-1,3.7,0.8,6.7l0.1,0.1V201.9z"/>
	</g>
</g>
</svg>
