<?xml version="1.0" encoding="UTF-8"?>
<svg width="319px" height="52px" viewBox="0 0 319 52" version="1.1" xmlns="http://www.w3.org/2000/svg" xmlns:xlink="http://www.w3.org/1999/xlink">
    <!-- Generator: Sketch 52.3 (67297) - http://www.bohemiancoding.com/sketch -->
    <title>Search Bar</title>
    <desc>Created with Sketch.</desc>
    <g id="Page-1" stroke="none" stroke-width="1" fill="none" fill-rule="evenodd">
        <g id="Search" transform="translate(-48.000000, -18.000000)">
            <g id="Search-Bar" transform="translate(48.000000, 18.000000)">
                <rect id="Rectangle" fill="#FFFFFF" fill-rule="nonzero" x="0" y="0" width="319" height="44"></rect>
                <g id="Group-3" transform="translate(20.000000, 22.000000) rotate(30.000000) translate(-20.000000, -22.000000) translate(12.000000, 10.000000)" fill="#ED184D">
                    <path d="M3.37292308,7.97195604 L3.37189451,7.97195604 C3.22663385,7.97195604 3.10815824,7.85348044 3.10918945,7.70719121 C3.11124923,6.49563956 3.58412571,5.35621978 4.43921143,4.4991033 C5.29635429,3.64196044 6.43577407,3.17010989 7.64729934,3.17010989 C7.79359121,3.17010989 7.9110356,3.28858549 7.9110356,3.43384615 C7.9110356,3.57910681 7.79359121,3.69758242 7.64729934,3.69758242 C6.57587077,3.69758242 5.56934769,4.11481319 4.81213451,4.87202637 C4.05594989,5.63026813 3.63871912,6.63781978 3.63563341,7.7093011 C3.63666198,7.85456176 3.51921758,7.97200615 3.37292835,7.97200615 L3.37292308,7.97195604 Z" id="Fill-1"></path>
                    <path d="M15.0936264,7.70901099 C15.0936264,9.76327912 14.260167,11.626022 12.9126593,12.9734505 C11.746444,14.1365802 10.1990769,14.9174769 8.47134066,15.1070242 L8.47134066,16.2598418 C8.82469451,16.5153363 9.0596044,16.9325802 9.0596044,17.4013187 L9.0596044,22.5895385 C9.0596044,22.9800003 8.90095121,23.3333541 8.64545934,23.5867783 C8.38893363,23.8412416 8.03865495,23.9998948 7.64821978,23.9998948 C6.87040879,23.9998948 6.23680879,23.3694069 6.23680879,22.5884835 L6.23680879,17.4013187 C6.23680879,16.9315516 6.47169758,16.5153231 6.82507253,16.2598418 L6.82507253,15.1070242 C3.10085275,14.6959648 0.202918681,11.5413099 0.202918681,7.70895824 C0.202918681,5.6516044 1.03637802,3.79194725 2.38388571,2.44451868 C3.73141978,1.09698462 5.59408352,0.263551648 7.64832527,0.263551648 C11.7599736,0.263551648 15.0936,3.59744176 15.0936,7.70882637 L15.0936264,7.70901099 Z M11.4168791,11.4754286 C12.4213451,10.4709626 12.9756132,9.13065495 12.9756132,7.70901099 C12.9756132,4.77072527 10.5865319,2.37863736 7.6484044,2.37863736 C6.22465055,2.37863736 4.88734945,2.93290549 3.87987692,3.94045714 C2.87541099,4.94800879 2.32114286,6.28523077 2.31805714,7.70898462 C2.32114813,10.6472703 4.71022418,13.0361934 7.64843341,13.0361934 C9.07218725,13.0361934 10.4094884,12.4819253 11.4169582,11.4754022 L11.4168791,11.4754286 Z" id="Fill-2"></path>
                </g>
                <polygon id="Path" fill="#010310" fill-rule="nonzero" points="205 52 237 37 319 37 319 52"></polygon>
            </g>
        </g>
    </g>
</svg>