<?xml version="1.0" encoding="UTF-8"?>
<svg width="84px" height="115px" viewBox="0 0 84 115" version="1.1" xmlns="http://www.w3.org/2000/svg" xmlns:xlink="http://www.w3.org/1999/xlink">
    <!-- Generator: Sketch 52.3 (67297) - http://www.bohemiancoding.com/sketch -->
    <title>suspect 1</title>
    <desc>Created with Sketch.</desc>
    <g id="Page-1" stroke="none" stroke-width="1" fill="none" fill-rule="evenodd">
        <g id="characters" transform="translate(-74.000000, -137.000000)" fill="#010310" stroke="#B4CECB">
            <path d="M77.0622014,177.972902 C77.0622014,177.972902 73.588764,180.279137 77.0622014,186.044289 L77.0622014,193.731352 L81.3074489,196.037587 L85.9386014,201.802739 L85.9386014,212.949009 L75.5185813,226.401224 L80.7284453,242.159674 L116.041531,251 L129.549083,242.543998 L119.128771,231.782343 C119.128771,231.782343 122.602501,231.398019 123.760216,228.707459 C124.917931,226.0169 129.549083,214.486305 129.549083,214.486305 L134.952046,206.030594 L136.881863,198.727856 L143.442833,192.194056 L143.442833,188.350524 L136.495958,187.9662 L139.197293,172.20775 L143.442833,166.826632 L141.513016,160.292832 L146.14446,157.217657 C146.14446,157.217657 161.967735,145.687063 155.406765,147.224941 L136.881863,149.146561 L130.707091,144.534091 L125.689741,141.843531 L116.259168,141.843531 L116.259168,138 L110.252371,138 L97.5166287,144.918706 L100.990066,138 L81.6933539,148.377622 C81.6933539,148.377622 70.5012317,170.670163 77.0622014,177.972902" id="suspect-1"></path>
        </g>
    </g>
</svg>