<?xml version="1.0" encoding="UTF-8"?>
<svg width="92px" height="109px" viewBox="0 0 92 109" version="1.1" xmlns="http://www.w3.org/2000/svg" xmlns:xlink="http://www.w3.org/1999/xlink">
    <!-- Generator: Sketch 52.3 (67297) - http://www.bohemiancoding.com/sketch -->
    <title>suspect 2 highlight</title>
    <desc>Created with Sketch.</desc>
    <defs>
        <linearGradient x1="50%" y1="0%" x2="50%" y2="100%" id="linearGradient-1">
            <stop stop-color="#FD404F" offset="0%"></stop>
            <stop stop-color="#FF8F60" offset="100%"></stop>
        </linearGradient>
    </defs>
    <g id="Page-1" stroke="none" stroke-width="1" fill="none" fill-rule="evenodd">
        <g id="characters" transform="translate(-271.000000, -150.000000)" fill="url(#linearGradient-1)" fill-rule="nonzero" stroke="#FFFFFF">
            <path d="M341.731853,158.539194 C341.612858,158.480066 341.446452,158.397628 341.237166,158.294334 C340.742276,158.050078 340.186995,157.777869 339.584242,157.484705 C337.8622,156.647143 336.105148,155.809612 334.416659,155.028158 C334.081632,154.873103 333.752084,154.721562 333.428528,154.573812 C330.288388,153.139884 327.863503,152.130485 326.457805,151.705105 C324.35392,151.069548 319.548463,150.5 316.857,150.5 C316.009921,150.5 314.465387,150.65554 312.440951,150.927341 C312.022507,150.983522 311.588773,151.043993 311.142819,151.10814 C310.21289,151.241903 309.273157,151.385267 308.37138,151.52863 C308.055776,151.578805 307.7675,151.625389 307.512511,151.667183 C307.3597,151.69223 307.251812,151.710136 307.273306,151.700016 C307.148,151.742479 306.911742,151.823783 306.580405,151.939798 C306.02747,152.133404 305.411167,152.353471 304.747385,152.595861 C302.851286,153.288251 300.955391,154.020441 299.187314,154.75905 C297.870782,155.309026 296.676209,155.841747 295.632596,156.349397 C293.930724,157.177246 292.674633,157.917453 291.962701,158.532128 C288.377849,161.625023 283.449171,171.113051 281.219992,178.018929 L281.16708,178.132066 L271.5,193.459648 L271.5,198.58267 L274.351982,210.245495 L274.366293,210.364264 L274.366293,236.085418 L278.021151,231.421034 L281.541819,225.422774 L289.78519,221.744209 L289.54271,222.735476 C289.523603,222.813588 289.489557,222.958797 289.445562,223.156818 C289.37202,223.487835 289.298445,223.843306 289.229833,224.2088 C289.154425,224.610497 289.089718,224.999734 289.038983,225.366731 C288.929465,226.158934 288.891959,226.800316 288.940646,227.216462 C288.951606,227.310138 288.966448,227.385566 288.981256,227.440342 L290.641355,226.822077 L290.868508,227.085968 C290.912024,227.136522 290.994761,227.232022 291.111716,227.366034 C291.306979,227.589775 291.526474,227.839183 291.765191,228.107817 C292.447073,228.875156 293.145963,229.642401 293.821519,230.357787 C293.991737,230.53804 294.158628,230.713012 294.321784,230.882183 C295.547257,232.152834 296.508105,233.039968 297.057702,233.380814 L297.310143,233.537371 L296.710492,244.148135 L282.882149,257.813 L351.83597,257.813 L337.00659,244.158361 L336.403782,233.537306 L336.656434,233.38073 C337.206271,233.039978 338.16708,232.153201 339.392335,230.883036 C339.555787,230.713593 339.722985,230.538328 339.893521,230.357762 C340.569164,229.642382 341.268108,228.875143 341.950019,228.107808 C342.188745,227.839176 342.408246,227.589769 342.603511,227.36603 C342.720468,227.232019 342.803204,227.13652 342.846719,227.085968 L343.073873,226.822077 L343.400169,226.943598 L344.733537,227.44018 C344.748313,227.385406 344.763116,227.31005 344.774051,227.216511 C344.822701,226.800321 344.785226,226.158909 344.675797,225.366674 C344.625104,224.99967 344.560452,224.610426 344.485108,224.208724 C344.416554,223.843225 344.343041,223.487751 344.269561,223.15673 C344.225603,222.958706 344.191585,222.813494 344.172494,222.73538 L343.930286,221.744375 L350.60354,224.721883 L350.60354,233.524146 L354.364258,229.154788 L354.718215,229.757994 L355.656621,231.365981 L359.348935,236.084005 L359.348935,210.364264 L359.363234,210.245543 L362.214,198.582695 L362.214,193.459648 L352.54692,178.132066 L352.493976,178.01883 C351.90798,176.20215 350.381431,173.150482 348.163841,169.232775 C347.862907,168.701131 347.551176,168.157029 347.229642,167.601874 C346.010883,165.497589 344.704637,163.324991 343.398345,161.207475 C342.941116,160.466302 342.516575,159.785011 342.135637,159.178995 C341.961332,158.901701 341.825121,158.686155 341.731853,158.539194 Z M344.697877,227.534941 C344.696896,227.536039 344.695943,227.537152 344.69502,227.538281 C344.697664,227.535049 344.700513,227.530554 344.703515,227.52483 Z" id="suspect-2-highlight"></path>
        </g>
    </g>
</svg>