<?xml version="1.0" encoding="UTF-8"?>
<svg width="97px" height="115px" viewBox="0 0 97 115" version="1.1" xmlns="http://www.w3.org/2000/svg" xmlns:xlink="http://www.w3.org/1999/xlink">
    <!-- Generator: Sketch 52.3 (67297) - http://www.bohemiancoding.com/sketch -->
    <title>suspect 3</title>
    <desc>Created with Sketch.</desc>
    <g id="Page-1" stroke="none" stroke-width="1" fill="none" fill-rule="evenodd">
        <g id="characters" transform="translate(-68.000000, -356.000000)" fill="#010310" stroke="#B4CECB">
            <path d="M149.931363,432.471378 C149.931363,432.471378 143.283132,420.925766 139.589701,419.063426 C135.89627,417.201367 138.11244,409.752567 137.373531,408.26292 C137.213056,407.938716 137.227314,407.544314 137.34753,407.125104 C139.180127,406.849672 141.095478,406.394377 141.805871,405.655755 C143.570532,403.819915 142.81373,395.599791 142.81373,395.599791 C142.81373,395.599791 141.22464,396.578324 139.589701,397.42069 L139.589701,391.875391 L137.373531,377.350204 L130.355984,366.177004 C128.407924,361.967426 116.814616,360.4868 111.217017,360.012335 C111.075274,359.942983 110.929896,359.875041 110.780884,359.809637 C101.547447,355.748629 94.8992154,357.285074 94.8992154,357.285074 L94.8992154,359.809637 L91.5750997,364.314664 L91.2057846,366.921828 L90.4671543,371.01864 L90.8364694,373.953955 L88.6202991,373.953955 L85.6657781,380.975933 C85.6657781,380.975933 84.5575531,386.396343 84.5575531,387.460014 L84.5575531,392.992909 L84.9268682,398.586415 C84.9268682,398.586415 80.6429805,396.731686 80.7536911,398.586415 C80.8641222,400.441426 83.8189228,407.145402 83.8189228,407.145402 L88.9898938,409.379873 L87.1430386,413.104273 L82.7109775,425.022578 L73.4772605,439.547484 L72,445.816744 L79.5713795,448.113801 L69,470.460199 L163.99383,470.460199 L154.363424,449.231036 C154.363424,449.231036 151.039309,446.251742 149.562048,445.816744 C148.084788,445.381747 156.21,441.782236 156.21,441.782236 L149.931363,432.471378 Z" id="suspect-3"></path>
        </g>
    </g>
</svg>