<?xml version="1.0" encoding="UTF-8"?>
<svg width="64px" height="65px" viewBox="0 0 64 65" version="1.1" xmlns="http://www.w3.org/2000/svg" xmlns:xlink="http://www.w3.org/1999/xlink">
    <!-- Generator: Sketch 52.3 (67297) - http://www.bohemiancoding.com/sketch -->
    <title>check</title>
    <desc>Created with Sketch.</desc>
    <g id="Page-1" stroke="none" stroke-width="1" fill="none" fill-rule="evenodd">
        <g id="storyboard-scan-check" transform="translate(-510.000000, -841.000000)">
            <g id="check" transform="translate(510.000000, 841.000000)">
                <circle id="Oval" stroke="#00FFF8" stroke-width="3" fill="#FFFFFF" fill-rule="nonzero" cx="32" cy="32.0452433" r="30.5"></circle>
                <path d="M46.5589846,19.0661392 C46.0717468,19.1394148 45.6215203,19.3797478 45.2824809,19.746111 C37.9794206,27.27551 32.5116081,33.4888585 25.5426271,40.7548973 L17.6100681,33.8613893 C17.1655677,33.4745125 16.5900322,33.2840003 16.0087489,33.3338287 C15.4303322,33.383657 14.8918446,33.6679509 14.5156772,34.1281109 C14.1395681,34.5853371 13.9572105,35.1773497 14.0084967,35.7752747 C14.0569382,36.3731773 14.3361716,36.9241552 14.7835169,37.3081658 L24.2661161,45.5616176 C25.1380046,46.3177838 26.4287322,46.2562431 27.2294283,45.4209337 C35.0562198,37.3550604 40.6473062,30.8866052 48.3829188,22.9115199 C49.0610632,22.2344817 49.2405834,21.1851979 48.8245672,20.3088314 C48.4114104,19.4353911 47.4967845,18.9342565 46.5593202,19.0661617 L46.5589846,19.0661392 Z" id="Fill-1" fill="#00FFF8"></path>
            </g>
        </g>
    </g>
</svg>