<svg id="b1688c76-3c1b-4b62-9942-01c763dfd0b7" data-name="Layer 1" xmlns="http://www.w3.org/2000/svg" viewBox="0 0 168 130"><title>Artboard 1</title><g id="b7560921-0599-440b-85aa-8b151b2ebbb8" data-name="Page-1"><g id="a1563c35-43a2-4ce1-b0bb-48a499408077" data-name="characters"><path id="ea2fe793-5cff-4e48-9327-77f80ca856ad" data-name="suspect-1" d="M45.1,48.5s-3.5,2.3,0,8.1v7.7l4.2,2.3,4.6,5.8V83.5L43.5,97l5.2,15.8L84,121.6l13.5-8.5L87.1,102.3s3.5-.4,4.6-3.1S97.5,85,97.5,85l5.4-8.5,1.9-7.3,6.6-6.5V58.9l-6.9-.4,2.7-15.8,4.2-5.4-1.9-6.5,4.6-3.1s15.8-11.5,9.3-10l-18.5,1.9L98.7,15l-5-2.7H84.3V8.5h-6L65.6,15.4l3.5-6.9L49.8,18.9c-.1,0-11.3,22.3-4.7,29.6" fill="#010310" stroke="#b4cecb" fill-rule="evenodd"/></g></g></svg>